<svg xmlns="http://www.w3.org/2000/svg" viewBox="0 0 2135.49 933.38"><defs><style>.cls-1{fill:#fff;}.cls-2,.cls-3{fill:#f4bd25;}.cls-3{font-size:158.68px;font-family:ArialMT, Arial;}</style></defs><title>reviewgeven_3</title><g id="Laag_2" data-name="Laag 2"><g id="Laag_1-2" data-name="Laag 1"><rect class="cls-1" width="2135.49" height="933.38"/><polygon class="cls-2" points="1816.29 255.9 1868.05 120.99 1931.94 292.84 1816.29 255.9"/><polygon class="cls-2" points="1889.34 239.52 2034.71 241.81 1893.82 360.06 1889.34 239.52"/><polygon class="cls-2" points="1936.14 306.15 1975.63 445.1 1821.13 345 1936.14 306.15"/><polygon class="cls-2" points="1881.1 368.64 1759.99 448.51 1808.66 271.81 1881.1 368.64"/><polygon class="cls-2" points="1814.65 336.21 1702.17 244.75 1886.56 238.98 1814.65 336.21"/><rect class="cls-2" x="1827.82" y="255.5" width="80.06" height="89.14"/><polygon class="cls-1" points="1828.03 266.68 1868.31 161.69 1918.02 295.42 1828.03 266.68"/><polygon class="cls-1" points="1884.87 253.93 1997.99 255.71 1888.36 347.74 1884.87 253.93"/><polygon class="cls-1" points="1921.29 305.79 1952.02 413.9 1831.79 336.01 1921.29 305.79"/><polygon class="cls-1" points="1878.46 354.41 1784.21 416.56 1822.09 279.06 1878.46 354.41"/><polygon class="cls-1" points="1826.75 329.18 1739.22 258 1882.7 253.51 1826.75 329.18"/><rect class="cls-1" x="1837" y="266.37" width="62.3" height="69.36"/><polygon class="cls-2" points="204.12 255.23 255.88 120.32 319.77 292.17 204.12 255.23"/><polygon class="cls-2" points="277.17 238.85 422.54 241.14 281.65 359.4 277.17 238.85"/><polygon class="cls-2" points="323.97 305.49 363.46 444.43 208.96 344.33 323.97 305.49"/><polygon class="cls-2" points="268.93 367.98 147.82 447.84 196.49 271.14 268.93 367.98"/><polygon class="cls-2" points="202.48 335.55 90 244.08 274.39 238.31 202.48 335.55"/><rect class="cls-2" x="215.65" y="254.83" width="80.06" height="89.14"/><polygon class="cls-1" points="215.86 266.01 256.14 161.03 305.85 294.76 215.86 266.01"/><polygon class="cls-1" points="272.71 253.26 385.82 255.04 276.19 347.07 272.71 253.26"/><polygon class="cls-1" points="309.12 305.12 339.85 413.24 219.62 335.35 309.12 305.12"/><polygon class="cls-1" points="266.29 353.75 172.05 415.89 209.92 278.39 266.29 353.75"/><polygon class="cls-1" points="214.59 328.51 127.06 257.33 270.54 252.85 214.59 328.51"/><rect class="cls-1" x="224.83" y="265.7" width="62.3" height="69.36"/><polygon class="cls-2" points="607.28 256.57 659.03 121.65 722.92 293.51 607.28 256.57"/><polygon class="cls-2" points="680.33 240.18 825.7 242.47 684.81 360.73 680.33 240.18"/><polygon class="cls-2" points="727.12 306.82 766.61 445.76 612.11 345.67 727.12 306.82"/><polygon class="cls-2" points="672.09 369.31 550.97 449.17 599.64 272.48 672.09 369.31"/><polygon class="cls-2" points="605.64 336.88 493.15 245.41 677.54 239.65 605.64 336.88"/><rect class="cls-2" x="618.8" y="256.17" width="80.06" height="89.14"/><polygon class="cls-1" points="619.01 267.35 659.29 162.36 709 296.09 619.01 267.35"/><polygon class="cls-1" points="675.86 254.6 788.98 256.38 679.35 348.4 675.86 254.6"/><polygon class="cls-1" points="712.27 306.45 743 414.57 622.78 336.68 712.27 306.45"/><polygon class="cls-1" points="669.45 355.08 575.2 417.23 613.08 279.73 669.45 355.08"/><polygon class="cls-1" points="617.74 329.84 530.21 258.67 673.69 254.18 617.74 329.84"/><rect class="cls-1" x="627.98" y="267.03" width="62.3" height="69.36"/><polygon class="cls-2" points="1011.1 255.9 1062.86 120.99 1126.75 292.84 1011.1 255.9"/><polygon class="cls-2" points="1084.15 239.52 1229.52 241.81 1088.63 360.06 1084.15 239.52"/><polygon class="cls-2" points="1130.95 306.15 1170.44 445.1 1015.94 345 1130.95 306.15"/><polygon class="cls-2" points="1075.91 368.64 954.8 448.51 1003.47 271.81 1075.91 368.64"/><polygon class="cls-2" points="1009.46 336.21 896.98 244.75 1081.37 238.98 1009.46 336.21"/><rect class="cls-2" x="1022.63" y="255.5" width="80.06" height="89.14"/><polygon class="cls-1" points="1022.84 266.68 1063.12 161.69 1112.83 295.42 1022.84 266.68"/><polygon class="cls-1" points="1079.69 253.93 1192.81 255.71 1083.17 347.74 1079.69 253.93"/><polygon class="cls-1" points="1116.1 305.79 1146.83 413.9 1026.6 336.01 1116.1 305.79"/><polygon class="cls-1" points="1073.27 354.41 979.03 416.56 1016.9 279.06 1073.27 354.41"/><polygon class="cls-1" points="1021.57 329.18 934.03 258 1077.52 253.51 1021.57 329.18"/><rect class="cls-1" x="1031.81" y="266.37" width="62.3" height="69.36"/><polygon class="cls-2" points="1414.03 256.57 1465.79 121.65 1529.68 293.51 1414.03 256.57"/><polygon class="cls-2" points="1487.08 240.18 1632.45 242.47 1491.57 360.73 1487.08 240.18"/><polygon class="cls-2" points="1533.88 306.82 1573.37 445.76 1418.87 345.67 1533.88 306.82"/><polygon class="cls-2" points="1478.84 369.31 1357.73 449.17 1406.4 272.48 1478.84 369.31"/><polygon class="cls-2" points="1412.39 336.88 1299.91 245.41 1484.3 239.65 1412.39 336.88"/><rect class="cls-2" x="1425.56" y="256.17" width="80.06" height="89.14"/><polygon class="cls-1" points="1425.77 267.35 1466.05 162.36 1515.76 296.09 1425.77 267.35"/><polygon class="cls-1" points="1482.62 254.6 1595.74 256.38 1486.1 348.4 1482.62 254.6"/><polygon class="cls-1" points="1519.03 306.45 1549.76 414.57 1429.53 336.68 1519.03 306.45"/><polygon class="cls-1" points="1476.2 355.08 1381.96 417.23 1419.83 279.73 1476.2 355.08"/><polygon class="cls-1" points="1424.49 329.84 1336.96 258.67 1480.45 254.18 1424.49 329.84"/><rect class="cls-1" x="1434.74" y="267.03" width="62.3" height="69.36"/><text class="cls-3" transform="translate(426.35 739.91) scale(1.01 1)">Een review geven</text></g></g></svg>