<svg xmlns="http://www.w3.org/2000/svg" viewBox="0 0 1080 979.11"><defs><style>.cls-1{fill:#fff;}.cls-2,.cls-3{fill:#b7144e;}.cls-3{font-size:158.68px;font-family:ArialMT, Arial;}.cls-4{letter-spacing:-0.11em;}</style></defs><title>toegevoegd1</title><g id="Laag_2" data-name="Laag 2"><g id="Laag_1-2" data-name="Laag 1"><rect class="cls-1" width="1080" height="979.11"/><path class="cls-2" d="M760,244.87c0-.37,0-.73,0-1.1,0-69.14-50.35-132.45-126.07-132.45-60.16,0-95,42.94-106.95,83.13-11.9-40.19-46.79-83.13-107-83.13-75.71,0-126.07,63.31-126.07,132.45,0,.37,0,.73,0,1.1-.41,15,0,168.11,232.93,292.87v0H527v0C760,413,760.37,259.91,760,244.87Z"/><text class="cls-3" transform="translate(82.43 736.84) scale(1.01 1)"><tspan class="cls-4">T</tspan><tspan x="79.34" y="0">oegevoegd!</tspan></text></g></g></svg>