<svg xmlns="http://www.w3.org/2000/svg" viewBox="0 0 1080 981.85"><defs><style>.cls-1{fill:#fff;}.cls-2,.cls-3{fill:#ea5382;}.cls-3{font-size:158.68px;font-family:ArialMT, Arial;}.cls-4{letter-spacing:-0.06em;}</style></defs><title>voegtoe1</title><g id="Laag_2" data-name="Laag 2"><g id="Laag_1-2" data-name="Laag 1"><rect class="cls-1" width="1080" height="979.11"/><path class="cls-2" d="M759.18,245.67c0-.37,0-.74,0-1.11,0-69.55-50.3-133.24-125.94-133.24-60.1,0-94.95,43.2-106.84,83.63-11.89-40.43-46.75-83.63-106.85-83.63-75.64,0-125.94,63.69-125.94,133.24,0,.37,0,.74,0,1.11-.41,15.13,0,169.12,232.68,294.63v0l0,0,0,0,0,0a.05.05,0,0,0,0,0v0C759.21,414.79,759.59,260.8,759.18,245.67Z"/><text class="cls-3" transform="translate(71.77 739.91)"><tspan class="cls-4">V</tspan><tspan x="97.08" y="0">oeg toe aan </tspan><tspan x="119.24" y="190.42">favorieten</tspan></text></g></g></svg>